<svg width="93" height="105" viewBox="0 0 93 105" fill="none" xmlns="http://www.w3.org/2000/svg">
<path d="M31.309 28.3967V11.6205H8.93101V15.1873L10.2058 15.5958C10.8416 16.2956 11.6915 16.7581 12.6187 16.9087C14.3616 17.2442 13.6918 16.6315 14.9667 17.959C16.084 19.1699 17.5701 19.9661 19.1873 20.2201C20.9663 20.4973 20.1092 19.9649 21.204 21.4164C21.8408 22.3063 22.6978 23.0107 23.6888 23.4587C26.4545 24.6403 25.4318 23.218 27.5061 25.6469C27.8719 26.0688 28.3145 26.4155 28.8097 26.668C29.7111 27.1291 30.5489 27.7079 31.3018 28.3894L31.309 28.3967ZM67.8973 55.3188C68.2286 55.3231 68.5512 55.4267 68.8244 55.6163C69.0977 55.806 69.3094 56.0734 69.4329 56.3847C69.5564 56.696 69.5861 57.0374 69.5184 57.3658C69.4506 57.6942 69.2884 57.9949 69.0521 58.2301C68.8159 58.4653 68.5162 58.6245 68.1908 58.6875C67.8654 58.7505 67.5289 58.7145 67.2236 58.5841C66.9183 58.4538 66.658 58.2348 66.4754 57.9549C66.2928 57.6749 66.1961 57.3465 66.1975 57.011C66.1994 56.7869 66.2449 56.5653 66.3313 56.359C66.4178 56.1526 66.5435 55.9655 66.7013 55.8084C66.8592 55.6513 67.046 55.5271 67.2512 55.4431C67.4564 55.3591 67.676 55.3169 67.8973 55.3188ZM77.5702 55.1511C77.9014 55.1554 78.224 55.2589 78.4973 55.4486C78.7706 55.6383 78.9823 55.9056 79.1058 56.2169C79.2293 56.5282 79.259 56.8696 79.1912 57.198C79.1235 57.5264 78.9613 57.8272 78.725 58.0624C78.4888 58.2976 78.189 58.4567 77.8636 58.5197C77.5383 58.5827 77.2017 58.5467 76.8965 58.4164C76.5912 58.286 76.3309 58.0671 76.1483 57.7871C75.9657 57.5072 75.869 57.1788 75.8704 56.8433C75.8713 56.6189 75.9161 56.3968 76.0023 56.19C76.0884 55.9833 76.2141 55.7958 76.3721 55.6385C76.5301 55.4811 76.7174 55.3571 76.923 55.2734C77.1286 55.1898 77.3486 55.1482 77.5702 55.1511ZM77.3829 61.5406C77.7139 61.5449 78.0362 61.6482 78.3093 61.8376C78.5824 62.0269 78.7941 62.2938 78.9178 62.6047C79.0415 62.9156 79.0717 63.2566 79.0045 63.5849C78.9374 63.9131 78.7759 64.2139 78.5403 64.4493C78.3048 64.6848 78.0058 64.8445 77.6808 64.9084C77.3559 64.9722 77.0196 64.9373 76.7142 64.808C76.4088 64.6788 76.148 64.461 75.9645 64.182C75.7811 63.903 75.6832 63.5753 75.6831 63.2401C75.6869 62.7868 75.8679 62.3534 76.1865 62.0349C76.5051 61.7164 76.9352 61.5387 77.3829 61.5406ZM72.6869 58.5428C73.0188 58.5471 73.3419 58.651 73.6155 58.8414C73.889 59.0317 74.1007 59.2999 74.2238 59.6121C74.3468 59.9243 74.3757 60.2664 74.3067 60.5951C74.2378 60.9239 74.0741 61.2246 73.8364 61.4592C73.5988 61.6938 73.2977 61.8518 72.9714 61.9131C72.6451 61.9744 72.3081 61.9364 72.0031 61.8038C71.6981 61.6712 71.4388 61.45 71.258 61.1681C71.0772 60.8863 70.9829 60.5565 70.9871 60.2204C70.989 59.9962 71.0345 59.7747 71.1209 59.5683C71.2074 59.362 71.3331 59.1749 71.491 59.0178C71.6488 58.8606 71.8356 58.7365 72.0409 58.6525C72.2461 58.5685 72.4656 58.5263 72.6869 58.5282V58.5428ZM77.5702 48.8636C77.9011 48.868 78.2234 48.9713 78.4966 49.1606C78.7697 49.35 78.9814 49.6169 79.1051 49.9278C79.2288 50.2387 79.259 50.5797 79.1918 50.9079C79.1246 51.2361 78.9631 51.5369 78.7276 51.7724C78.4921 52.0079 78.193 52.1676 77.8681 52.2314C77.5432 52.2952 77.2068 52.2603 76.9015 52.1311C76.5961 52.0018 76.3353 51.784 76.1518 51.505C75.9683 51.226 75.8704 50.8983 75.8704 50.5631C75.8713 50.3384 75.9161 50.116 76.0021 49.9088C76.0881 49.7017 76.2137 49.5137 76.3717 49.3558C76.5296 49.1979 76.7168 49.0731 76.9224 48.9887C77.1281 48.9042 77.3482 48.8617 77.5702 48.8636ZM72.7445 52.0876C73.0755 52.0919 73.3978 52.1952 73.6709 52.3846C73.944 52.5739 74.1558 52.8408 74.2795 53.1517C74.4032 53.4626 74.4333 53.8036 74.3662 54.1319C74.299 54.4601 74.1375 54.7608 73.902 54.9963C73.6664 55.2318 73.3674 55.3915 73.0425 55.4554C72.7175 55.5192 72.3812 55.4843 72.0758 55.355C71.7704 55.2258 71.5096 55.008 71.3262 54.729C71.1427 54.45 71.0448 54.1223 71.0448 53.7871C71.0486 53.3338 71.2296 52.9004 71.5481 52.5819C71.8667 52.2634 72.2969 52.0856 72.7445 52.0876ZM53.7301 49.6368L57.9363 49.5712L57.9796 52.321L64.9731 55.3626L65.0307 59.3743L58.1236 63.4006L58.1668 66.3182L53.9606 66.3838L53.7229 49.6076L53.7301 49.6368ZM48.9045 49.6003H52.124V66.2379H48.8973V65.6471L36.8332 68.1198C36.8763 68.0006 36.8982 67.8747 36.898 67.7478V60.5486C36.8756 60.2673 36.7494 60.0048 36.5445 59.8134C36.3397 59.622 36.0712 59.5158 35.7925 59.5158C35.5138 59.5158 35.2453 59.622 35.0404 59.8134C34.8355 60.0048 34.7093 60.2673 34.6869 60.5486V67.7478C34.6962 68.0175 34.7981 68.2754 34.975 68.4772L32.2237 69.0388C27.9886 69.1774 24.798 71.0666 23.8689 76.734L20.3109 89.9361C21.9818 92.4015 22.3779 94.3708 21.2616 95.7713C19.641 97.7844 16.7601 97.2301 14.4913 97.2301H3.88211C1.00114 96.9748 -0.100834 95.0419 0.0576194 91.8836C0.0576194 88.5502 0.612207 86.982 2.00228 83.8602C2.72732 82.2318 3.59002 80.67 4.58075 79.1921C7.17362 74.7573 8.93822 70.8842 9.11828 68.2511C9.60084 61.4677 0 69.8776 0 57.9593V53.0285C0.00190072 52.3288 0.277206 51.6583 0.765754 51.1636C1.2543 50.6688 1.91637 50.39 2.60728 50.3881H15.1251V41.6353C12.5461 41.3857 10.1339 40.2327 8.3044 38.3749C7.27014 37.3312 6.44953 36.091 5.88964 34.7254C5.32975 33.3599 5.04159 31.8958 5.0417 30.4171V11.6351H2.30478C1.81042 11.6046 1.34618 11.3842 1.00679 11.0189C0.667391 10.6536 0.478415 10.171 0.478415 9.66939C0.478415 9.16782 0.667391 8.68514 1.00679 8.31985C1.34618 7.95455 1.81042 7.73417 2.30478 7.70366H37.928C38.1928 7.68731 38.4582 7.72603 38.7077 7.81743C38.9572 7.90882 39.1856 8.05096 39.3789 8.2351C39.5721 8.41924 39.7261 8.64148 39.8314 8.88814C39.9366 9.13481 39.9909 9.40068 39.9909 9.66939C39.9909 9.9381 39.9366 10.204 39.8314 10.4506C39.7261 10.6973 39.5721 10.9195 39.3789 11.1037C39.1856 11.2878 38.9572 11.43 38.7077 11.5214C38.4582 11.6127 38.1928 11.6515 37.928 11.6351H35.1839V30.4171C35.183 31.8963 34.8937 33.3607 34.3326 34.7263C33.7715 36.0919 32.9495 37.3318 31.914 38.3749C30.0864 40.2311 27.6769 41.3841 25.1005 41.6353V50.3881H48.8973V49.6003H48.9045ZM29.3931 84.3343L31.4962 78.1928C32.1156 76.3766 31.4962 74.3124 30.207 73.6632L27.895 72.467C27.0667 75.1366 25.2301 80.4393 24.409 83.1089L28.2407 85.0783C28.6801 85.3044 29.177 84.9689 29.3931 84.3489V84.3343Z" fill="currentColor"/>
</svg>
